<?xml version="1.0" standalone="no"?>
<!DOCTYPE svg PUBLIC "-//W3C//DTD SVG 20010904//EN"
 "http://www.w3.org/TR/2001/REC-SVG-20010904/DTD/svg10.dtd">
<svg version="1.0" xmlns="http://www.w3.org/2000/svg"
 width="540.000000pt" height="540.000000pt" viewBox="0 0 540.000000 540.000000"
 preserveAspectRatio="xMidYMid meet">
<metadata>
Created by potrace 1.14, written by Peter Selinger 2001-2017
</metadata>
<g transform="translate(0.000000,540.000000) scale(0.100000,-0.100000)"
fill="#000000" stroke="none">
<path d="M2540 4470 c-231 -13 -392 -47 -636 -136 -334 -120 -510 -246 -764
-544 -177 -207 -325 -508 -376 -762 -15 -77 -43 -151 -44 -119 0 10 -3 11 -14
2 -10 -9 -16 -9 -21 -1 -4 7 -11 8 -18 1 -7 -5 -58 -14 -114 -19 -56 -6 -112
-17 -125 -25 -12 -9 -57 -20 -98 -26 -41 -6 -98 -18 -127 -26 -29 -9 -74 -15
-100 -14 -26 1 -60 -4 -75 -10 l-28 -11 0 -1390 0 -1390 909 0 909 0 -10 43
c-6 23 -8 108 -5 192 4 122 10 166 32 239 35 119 78 230 107 272 26 40 24 40
163 0 146 -43 258 -65 394 -77 l128 -12 6 -73 c6 -85 32 -147 78 -191 57 -53
116 -77 197 -81 62 -4 80 -1 126 22 30 15 57 34 60 43 6 16 6 16 -12 0 -21
-19 -82 -34 -82 -21 0 46 22 126 39 143 12 12 21 30 21 40 0 29 -32 60 -65 61
-75 5 -95 0 -111 -25 -15 -23 -15 -27 0 -50 9 -14 30 -28 46 -32 33 -6 36 -20
23 -96 -6 -37 -7 -38 -40 -34 -38 5 -48 12 -119 82 -63 61 -93 135 -70 170 21
32 75 54 158 64 121 16 242 -6 292 -51 32 -29 15 -109 -38 -191 -15 -21 -15
-26 -4 -22 9 4 28 31 43 61 25 49 27 62 23 132 l-4 78 55 13 c31 7 94 26 141
43 47 16 92 32 102 35 33 10 132 -246 158 -411 13 -76 9 -294 -6 -344 l-6 -22
881 0 881 0 0 1725 c0 1372 -3 1726 -12 1729 -7 2 -31 9 -53 16 -26 8 -91 13
-183 12 -121 0 -144 2 -149 15 -6 14 -8 14 -19 -1 -10 -14 -30 -17 -109 -17
-61 0 -100 4 -105 10 -3 7 -31 16 -61 21 -30 4 -69 16 -87 25 -24 12 -44 15
-70 10 -21 -4 -46 -7 -57 -8 -11 -1 -24 -8 -29 -16 -7 -11 -10 -11 -17 0 -7
11 -9 11 -9 1 0 -23 -16 -5 -73 81 -31 45 -64 91 -74 102 -10 11 -44 52 -75
90 -62 77 -178 191 -248 245 -25 19 -47 38 -50 42 -3 4 -44 32 -90 63 -346
231 -826 352 -1290 325z m324 -25 c43 -3 96 -10 116 -15 21 -6 50 -12 66 -13
133 -16 358 -81 489 -141 130 -61 145 -69 145 -79 0 -6 3 -8 6 -5 3 4 22 -5
41 -18 20 -13 42 -24 50 -24 8 0 11 -4 8 -10 -3 -5 -1 -10 5 -10 22 0 170
-105 165 -117 -2 -8 2 -10 12 -6 12 5 14 3 8 -7 -6 -10 -4 -12 9 -7 14 6 17 3
12 -8 -3 -9 -2 -13 4 -10 11 7 80 -59 80 -76 0 -7 3 -10 6 -6 6 5 124 -112
124 -124 0 -3 11 -19 26 -35 45 -52 109 -148 138 -209 16 -33 33 -63 38 -66 5
-3 7 -19 4 -35 -4 -16 -3 -23 0 -16 11 25 34 -7 28 -41 -3 -26 -2 -28 5 -12 5
11 10 15 10 8 1 -6 4 -18 7 -27 4 -11 0 -14 -16 -11 -14 3 -20 0 -17 -8 2 -7
14 -11 25 -9 19 3 22 -2 22 -27 0 -17 4 -31 8 -31 4 0 13 -21 21 -47 7 -27 17
-58 23 -70 6 -12 8 -29 5 -37 -3 -8 0 -21 7 -29 18 -18 33 -102 16 -92 -6 4
-9 12 -7 19 3 7 -8 11 -33 11 -26 0 -36 -3 -33 -12 6 -15 23 -17 23 -3 0 6 5
10 10 10 6 0 10 -8 10 -18 0 -14 -8 -19 -30 -19 -24 0 -29 4 -25 16 5 12 2 11
-14 -3 -19 -17 -20 -17 -30 3 -10 18 -9 20 6 14 10 -4 -2 9 -27 29 -25 19 -44
41 -42 47 1 7 -2 9 -8 6 -6 -4 -19 2 -28 12 -43 49 -154 117 -267 164 -53 22
-151 39 -227 39 l-84 0 -13 97 c-14 108 -46 223 -62 223 -6 0 -9 6 -7 12 3 7
-1 19 -9 26 -7 7 -16 25 -20 40 -3 15 -11 32 -17 38 -6 7 -28 33 -49 58 -21
25 -45 46 -53 46 -9 0 -12 5 -9 10 4 6 3 10 -2 9 -20 -4 -27 2 -13 12 13 9 12
10 -3 5 -10 -3 -20 0 -23 9 -14 35 -260 77 -302 51 -7 -4 -19 -2 -28 5 -8 6
-17 9 -21 5 -3 -3 0 -6 8 -6 8 -1 1 -7 -16 -14 -16 -7 -41 -23 -54 -35 -13
-11 -28 -18 -32 -15 -5 3 -9 0 -9 -6 0 -6 -18 -35 -39 -64 -40 -54 -66 -116
-77 -187 l-7 -41 -40 83 c-22 46 -47 92 -56 102 -9 9 -23 25 -32 35 -9 9 -19
25 -22 36 -5 12 -13 16 -24 12 -10 -4 -14 -4 -10 0 7 7 -28 23 -103 46 -46 14
-137 14 -175 -2 -16 -6 -50 -19 -75 -27 -55 -19 -144 -80 -161 -110 -7 -13
-21 -23 -32 -23 -11 0 -17 -3 -14 -6 4 -4 -1 -14 -11 -23 -10 -9 -23 -29 -30
-45 -11 -24 -15 -27 -23 -15 -8 10 -9 7 -5 -13 4 -16 3 -28 -1 -28 -5 0 -14
-9 -21 -21 -8 -12 -9 -18 -3 -14 14 8 14 11 -9 -63 -14 -45 -20 -92 -20 -161
l0 -98 -82 -11 c-46 -6 -96 -13 -113 -16 -53 -11 -178 -58 -242 -93 -34 -18
-66 -33 -72 -33 -5 0 -23 -13 -41 -30 -18 -16 -36 -30 -41 -30 -6 0 -19 -9
-31 -20 -26 -24 -38 -25 -38 -4 0 8 -5 12 -10 9 -8 -5 -7 -11 1 -21 15 -19 -1
-37 -24 -28 -20 7 -23 24 -4 24 8 0 7 4 -3 10 -20 13 -39 12 -20 -1 11 -8 8
-9 -14 -4 -25 5 -28 4 -18 -8 7 -8 8 -18 4 -22 -4 -5 -1 -5 6 -1 7 4 21 5 30
1 14 -6 12 -9 -10 -15 -39 -11 -108 -1 -108 16 0 8 5 14 11 14 6 0 9 7 5 15
-4 12 2 15 28 15 33 0 34 2 39 43 6 60 15 91 27 95 18 6 11 22 -10 22 -28 0
-25 17 10 50 24 22 30 36 30 69 0 34 -3 41 -20 41 -16 0 -20 -7 -20 -36 0 -19
-7 -43 -16 -51 -12 -12 -15 -30 -11 -72 2 -31 2 -44 0 -28 -2 15 -10 27 -17
27 -15 0 -10 57 7 78 7 9 7 16 -1 24 -7 7 -12 23 -12 37 0 24 1 24 14 5 8 -10
18 -16 22 -12 4 4 1 15 -6 23 -11 13 -9 20 12 43 24 25 25 32 18 82 -8 56 -5
74 9 52 5 -9 11 -6 18 10 18 36 24 76 13 83 -13 8 -13 35 0 35 6 0 10 -6 10
-13 0 -9 12 -11 40 -9 35 4 40 2 40 -17 0 -20 5 -21 120 -21 l120 0 0 40 0 40
-130 0 -129 0 7 33 c3 17 7 44 7 59 0 14 3 24 7 22 4 -3 18 6 30 18 20 20 21
23 5 26 -18 4 -22 14 -10 25 3 4 15 0 25 -10 10 -9 21 -13 25 -10 3 4 1 7 -5
7 -7 0 -12 6 -12 14 0 8 -6 16 -12 19 -7 2 -10 8 -6 12 4 4 15 2 24 -6 16 -13
17 -11 11 16 -3 17 -4 25 -1 20 2 -6 20 -9 38 -7 39 4 51 31 42 86 -3 17 -3
24 2 16 4 -8 21 -17 38 -18 28 -3 32 0 38 29 4 24 2 35 -11 45 -17 13 -17 14
1 8 15 -6 17 -3 11 15 -4 13 -2 20 4 19 6 -2 22 11 36 27 l25 30 20 -25 c11
-14 20 -21 20 -16 0 5 -8 18 -17 29 -17 18 -16 21 47 78 36 32 69 59 73 59 4
0 18 9 30 20 12 11 27 18 34 16 7 -3 13 0 13 6 0 16 32 37 56 38 11 0 24 4 30
9 8 8 49 21 149 50 69 20 274 44 425 50 80 3 150 5 155 4 6 -1 46 -4 89 -8z
m-1218 -454 c-8 -13 -36 -15 -36 -3 0 4 5 13 12 20 14 14 34 0 24 -17z m-90
-89 c-14 -14 -16 -14 -16 -1 0 20 23 44 29 28 2 -6 -4 -18 -13 -27z m1845 -19
c132 -52 250 -211 299 -403 61 -236 22 -430 -107 -535 -67 -55 -107 -73 -179
-81 -30 -4 -54 -11 -54 -15 0 -5 12 -7 28 -4 15 2 46 7 69 10 71 9 170 80 218
155 29 46 61 141 70 208 l7 52 64 0 c203 0 423 -103 551 -259 l44 -54 -38 -12
c-51 -16 -279 -39 -294 -29 -8 5 -10 3 -5 -5 5 -8 3 -11 -5 -10 -8 1 -40 -6
-73 -15 -45 -14 -60 -15 -66 -6 -6 9 -10 8 -17 -4 -5 -9 -20 -18 -33 -21 -13
-2 -28 -9 -33 -14 -5 -5 -16 -7 -23 -4 -24 9 -66 -6 -60 -22 3 -9 -1 -15 -9
-15 -8 0 -15 7 -15 15 0 17 -16 20 -25 5 -3 -5 -1 -10 4 -10 17 0 13 -20 -5
-27 -9 -3 -20 0 -26 8 -6 10 -7 7 -3 -10 5 -17 4 -22 -5 -16 -9 6 -11 4 -4 -6
5 -8 7 -22 6 -31 -2 -10 2 -18 7 -18 6 0 11 -8 11 -17 0 -13 3 -14 12 -5 14
14 42 16 33 2 -3 -5 -1 -10 4 -10 13 0 13 3 5 24 -3 9 -18 16 -33 17 -22 0
-19 4 24 24 38 19 62 23 105 21 30 -2 44 -2 31 1 -22 4 -22 5 -5 18 11 7 21
12 24 12 3 0 25 10 50 23 28 14 62 23 90 23 32 -1 39 2 25 7 -12 5 5 6 40 4
52 -4 57 -3 35 8 -23 11 -19 12 45 18 39 4 108 17 154 30 l84 22 19 -23 c55
-71 144 -287 154 -375 l7 -57 -29 6 c-49 9 -175 26 -254 34 -54 6 -74 12 -72
21 1 8 -2 11 -7 8 -5 -4 -12 -2 -15 3 -4 5 -2 13 4 16 17 10 -9 35 -34 34 -17
-1 -18 -2 -3 -6 19 -5 17 -30 -2 -25 -6 1 -14 3 -18 3 -5 1 -79 1 -166 0 -150
-1 -159 -2 -164 -21 -3 -11 -11 -20 -18 -20 -8 0 -11 -8 -8 -21 6 -21 10 -21
95 -15 82 5 88 4 88 -13 0 -14 5 -18 20 -14 11 3 18 9 15 13 -9 14 321 14 440
-1 146 -18 137 -12 130 -77 -10 -98 -48 -297 -58 -303 -10 -7 -46 0 -62 12
-11 8 -93 24 -85 17 3 -3 35 -16 73 -28 81 -27 81 -28 33 -163 -135 -378 -373
-657 -712 -837 -43 -23 -83 -46 -89 -50 -19 -14 -199 -77 -285 -99 -71 -19
-205 -47 -320 -67 -149 -27 -525 -27 -695 -1 -144 23 -408 85 -525 125 -71 24
-87 34 -102 61 -21 37 -10 72 19 65 99 -21 163 -43 255 -85 179 -82 245 -90
515 -68 153 12 171 12 352 -10 260 -32 351 -21 511 59 44 22 85 40 92 40 7 0
40 13 73 29 66 31 173 136 255 249 60 82 152 246 140 250 -4 2 -60 -17 -123
-42 -63 -24 -176 -58 -250 -75 -74 -17 -162 -40 -194 -52 -138 -50 -257 -63
-327 -34 -20 8 -36 17 -36 19 0 3 13 58 30 123 55 222 73 496 49 768 -5 66
-14 135 -19 154 -11 42 -2 57 44 65 39 7 115 71 147 122 27 45 43 201 22 222
-7 8 -20 26 -27 40 -38 73 -152 135 -240 132 -23 -1 -46 -1 -52 -1 -15 1 -48
78 -68 156 -9 35 -18 134 -22 236 -6 154 -5 182 11 230 40 120 132 217 230
243 41 10 190 -3 236 -21z m-781 -29 c83 -24 133 -64 183 -146 60 -96 92 -198
107 -337 19 -177 -5 -314 -71 -414 -30 -45 -97 -107 -117 -107 -5 0 -15 -7
-22 -15 -10 -12 -10 -15 4 -15 9 0 16 4 16 8 0 5 11 14 25 20 29 13 115 90
115 103 0 5 11 32 25 61 14 28 25 59 25 67 0 9 5 34 11 56 l12 40 15 -45 c8
-25 18 -47 22 -50 4 -3 10 -15 14 -27 6 -18 1 -25 -31 -41 -84 -44 -143 -139
-143 -234 0 -81 19 -128 75 -184 52 -53 119 -84 180 -84 32 0 32 -1 43 -68 23
-136 34 -320 29 -457 -8 -206 -72 -542 -105 -553 -5 -1 -52 17 -103 41 -154
72 -216 77 -406 28 -108 -28 -219 -37 -266 -22 -69 23 -116 92 -225 331 -55
121 -187 178 -349 151 -138 -24 -209 -52 -310 -127 -21 -15 -22 -14 -42 26
-33 69 -35 96 -9 114 12 9 28 16 35 16 7 0 36 11 65 24 115 51 440 142 595
167 99 15 124 34 33 24 -126 -13 -481 -117 -679 -198 -81 -33 -104 -30 -109
14 -2 13 -7 33 -11 44 -5 11 -13 43 -19 70 -5 28 -19 93 -31 145 -11 52 -21
96 -21 97 -1 8 84 25 175 34 101 10 116 9 139 -6 24 -16 26 -16 26 -1 0 14 16
16 120 16 104 0 120 -2 120 -16 0 -14 11 -16 78 -11 42 3 67 3 55 0 -47 -10
-13 -33 49 -33 29 0 46 15 26 23 -7 3 4 6 24 6 28 1 40 -4 48 -19 6 -11 19
-20 29 -20 21 0 31 26 31 87 0 23 5 43 12 45 16 6 25 198 9 198 -7 0 -11 -28
-11 -81 l0 -81 -25 4 c-14 3 -25 1 -25 -3 0 -5 5 -9 10 -9 6 0 10 -8 10 -19 0
-16 -5 -17 -50 -10 -28 4 -132 8 -232 8 -99 0 -183 3 -186 6 -3 3 20 5 51 5
55 0 82 12 52 24 -20 7 -22 142 -2 149 6 3 2 6 -10 6 -22 1 -23 -2 -23 -86 l0
-86 -130 6 c-79 4 -130 3 -130 -3 0 -5 14 -7 32 -3 22 4 29 3 24 -5 -4 -7 -12
-12 -18 -12 -6 0 -19 -6 -27 -13 -35 -29 -232 -79 -248 -63 -3 3 -7 19 -8 36
-1 16 -2 45 -3 63 -2 21 -5 28 -11 19 -12 -19 -1 139 12 163 20 41 111 161
139 184 28 22 32 23 91 12 70 -14 110 -25 182 -52 86 -32 145 -42 449 -75 22
-2 45 -9 52 -15 18 -15 58 -7 62 12 5 27 -128 55 -303 64 -113 6 -206 22 -345
59 -52 14 -106 26 -119 26 -21 0 -22 2 -10 17 25 30 153 120 229 161 117 62
407 141 429 116 5 -5 13 -41 20 -80 14 -80 48 -146 114 -219 44 -49 56 -58
127 -89 79 -34 199 -45 285 -26 40 9 40 9 -10 5 -150 -11 -301 36 -388 122
-102 100 -133 202 -124 408 8 192 45 286 161 400 91 90 198 136 332 144 11 0
45 -6 74 -15z m-1190 -123 c0 -5 -5 -11 -11 -13 -6 -2 -12 -19 -13 -38 -1 -26
-7 -36 -21 -38 -16 -3 -18 -1 -7 9 6 7 12 19 12 25 0 23 19 64 30 64 5 0 10
-4 10 -9z m-95 -161 c3 -5 1 -10 -4 -10 -6 0 -11 5 -11 10 0 6 2 10 4 10 3 0
8 -4 11 -10z m-55 -175 c0 -2 -9 -19 -21 -37 -12 -18 -18 -24 -14 -13 4 11 10
28 12 38 5 15 23 25 23 12z m-50 -180 c-6 -30 -8 -33 -9 -13 -1 25 8 62 14 56
2 -2 -1 -21 -5 -43z m-36 -230 c-4 -8 -8 -15 -10 -15 -2 0 -4 7 -4 15 0 8 4
15 10 15 5 0 7 -7 4 -15z m2005 -22 c77 -75 41 -183 -60 -183 -44 0 -89 48
-89 95 0 41 24 83 54 95 35 14 76 11 95 -7z m1386 -75 c4 -24 7 -46 7 -50 -1
-4 -6 -25 -11 -48 -5 -22 -5 -40 -1 -40 5 0 11 10 13 23 2 12 4 -9 4 -48 1
-38 -1 -61 -4 -50 -3 11 -12 35 -20 53 -10 20 -13 45 -9 65 3 17 8 46 11 62
l5 30 -11 -30 c-6 -16 -14 -46 -19 -65 -6 -28 -8 -22 -7 32 1 38 6 66 12 65 6
-1 10 8 9 21 -1 38 13 24 21 -20z m-45 22 c0 -5 -8 -10 -17 -10 -13 0 -14 -3
-5 -12 7 -7 12 -23 12 -37 l0 -26 -15 29 c-17 32 -11 66 11 66 8 0 14 -4 14
-10z m-3340 -35 c-7 -8 -9 -15 -4 -15 4 0 3 -5 -4 -12 -7 -7 -12 -19 -12 -27
0 -9 7 -2 16 15 11 22 22 32 39 32 24 0 24 -1 -6 -32 -16 -17 -32 -41 -35 -53
-4 -13 -10 -23 -15 -23 -7 0 -7 51 0 118 0 6 8 12 17 12 14 0 14 -3 4 -15z
m2607 -51 c-3 -3 -12 -4 -19 -1 -8 3 -5 6 6 6 11 1 17 -2 13 -5z m391 -290 c7
-9 8 -10 0 -4 -7 6 -81 10 -173 10 -108 0 -155 3 -145 10 23 15 302 1 318 -16z
m-2658 -54 c0 -5 -12 -10 -27 -10 -16 0 -38 -3 -50 -6 -13 -4 -23 -2 -23 4 0
9 22 15 83 20 9 1 17 -2 17 -8z m138 -7 c-16 -2 -40 -2 -55 0 -16 2 -3 4 27 4
30 0 43 -2 28 -4z m370 -59 c17 -3 32 -10 32 -15 0 -12 -37 -11 -45 1 -3 6
-44 10 -91 10 -60 0 -83 3 -78 11 7 12 115 8 182 -7z m-58 -602 c-7 -3 -16 2
-21 9 -16 25 -9 32 12 13 13 -12 16 -20 9 -22z m38 -57 c-3 -3 -9 2 -12 12 -6
14 -5 15 5 6 7 -7 10 -15 7 -18z m29 -87 c-3 -8 -6 -5 -6 6 -1 11 2 17 5 13 3
-3 4 -12 1 -19z m23 -29 c0 -11 -4 -18 -10 -14 -5 3 -7 12 -3 20 7 21 13 19
13 -6z m45 -87 c-6 -7 -34 11 -29 19 3 5 11 3 19 -4 7 -6 12 -13 10 -15z m5
-52 c0 -5 -2 -10 -4 -10 -3 0 -8 5 -11 10 -3 6 -1 10 4 10 6 0 11 -4 11 -10z
m538 -7 c-10 -2 -28 -2 -40 0 -13 2 -5 4 17 4 22 1 32 -1 23 -4z m152 -12 c12
-12 11 -13 -11 -6 -13 4 -41 8 -61 9 -59 4 -54 13 5 12 33 0 59 -6 67 -15z
m-325 -31 c-28 -12 -37 -12 -30 0 3 6 16 10 28 9 21 0 21 -1 2 -9z m1359 -377
c6 -15 8 -15 16 -3 8 13 12 13 27 -3 16 -16 16 -19 3 -28 -12 -9 -10 -10 8 -6
31 7 23 -15 -9 -25 -18 -6 -14 -7 13 -4 29 4 42 -1 63 -20 20 -18 22 -24 10
-24 -12 0 -15 -6 -10 -21 7 -20 6 -20 -27 -3 -33 17 -33 17 -15 -3 9 -11 17
-35 17 -56 0 -33 3 -37 25 -37 23 0 25 -4 25 -40 0 -38 2 -40 31 -40 19 0 28
-4 24 -11 -9 -13 25 -40 43 -34 19 7 42 -5 42 -22 0 -11 -8 -14 -30 -11 -26 4
-30 1 -30 -19 0 -13 5 -23 10 -23 6 0 10 5 10 11 0 8 12 10 35 6 25 -4 35 -2
34 6 -1 7 -1 23 0 37 2 24 2 24 13 6 8 -15 8 -21 0 -24 -8 -2 -6 -12 6 -30 30
-44 35 -59 9 -29 l-24 29 -6 -24 c-11 -39 -8 -47 21 -50 l27 -3 -29 -16 -29
-16 42 -7 c33 -5 47 -14 72 -48 16 -24 25 -44 20 -46 -16 -5 -14 -99 2 -106
10 -5 10 -7 0 -12 -21 -10 -16 -44 7 -44 16 0 20 -7 20 -35 0 -19 4 -35 8 -35
4 0 6 16 4 35 -2 20 0 35 6 35 17 0 19 -89 2 -105 -21 -22 -1 -49 39 -53 44
-5 44 -43 0 -59 -17 -7 -28 -17 -24 -22 4 -7 -15 -11 -57 -10 -35 1 -53 4 -40
6 17 4 22 11 22 38 0 31 -13 45 -43 45 -7 0 -18 -13 -25 -30 -13 -29 -32 -41
-32 -20 0 6 5 10 10 10 6 0 10 9 10 20 0 18 -7 20 -60 20 l-60 0 0 -39 c0 -39
0 -40 43 -44 39 -4 38 -4 -9 -4 -46 0 -52 3 -73 34 l-22 34 24 -6 c27 -7 37
12 37 73 0 30 -2 32 -35 32 -19 0 -35 5 -35 10 0 6 -5 10 -11 10 -7 0 -9 -15
-5 -42 3 -24 2 -34 -1 -24 -3 11 -13 27 -23 35 -28 25 -42 73 -31 102 l10 24
0 -25 c1 -49 13 -93 22 -79 12 19 11 52 -1 44 -5 -3 -10 1 -10 9 0 9 6 16 14
16 14 0 26 29 26 63 0 12 -8 17 -30 17 -22 0 -30 -5 -31 -17 -1 -30 -17 17
-18 52 -1 17 -10 55 -21 85 -11 30 -20 63 -20 72 0 10 -4 26 -9 36 -5 9 -13
28 -19 42 -5 14 -15 38 -21 54 -7 16 -10 31 -7 33 2 2 7 -5 11 -16 3 -12 14
-21 23 -21 13 0 12 4 -6 20 -12 12 -22 26 -22 31 0 6 -7 9 -15 6 -8 -4 -17 -1
-21 5 -4 7 -3 8 4 4 7 -4 12 -2 12 3 0 13 -10 14 -29 2 -12 -8 -12 -16 2 -53
9 -24 17 -53 17 -63 0 -17 2 -18 11 -5 8 12 9 10 4 -9 -5 -16 -4 -21 4 -17 7
5 9 1 5 -9 -4 -8 -1 -21 5 -29 6 -7 8 -22 4 -31 -4 -12 -3 -16 5 -11 12 7 15
-1 37 -112 20 -100 15 -118 -8 -30 l-16 63 4 -65 c3 -47 2 -58 -5 -40 -8 22
-9 20 -7 -15 1 -29 6 -40 18 -39 11 1 14 -7 12 -30 l-3 -31 15 30 c14 29 14
29 15 -37 0 -67 -19 -109 -21 -46 -1 33 -1 33 -9 -6 -4 -22 -4 -54 1 -70 14
-48 12 -63 -6 -40 -12 16 -14 17 -15 3 0 -14 -16 -18 -81 -24 -44 -4 -84 -3
-89 1 -4 5 -4 54 1 109 5 55 7 116 4 135 -11 85 -15 108 -24 156 -13 65 -63
218 -90 275 -24 49 -25 53 -11 44 6 -3 10 -1 10 4 0 6 -7 11 -15 11 -8 0 -15
7 -15 16 0 11 5 14 17 10 10 -4 15 -4 11 -1 -6 7 27 45 39 45 3 0 21 11 38 25
18 13 35 22 38 18 3 -3 9 6 12 20 5 17 12 24 21 20 10 -4 12 0 8 11 -3 9 -2
16 4 16 6 0 24 29 42 64 27 56 39 69 71 75 4 0 10 -7 13 -16z m193 -190 c4 3
8 -5 8 -17 0 -16 -6 -22 -22 -21 -31 0 -53 23 -34 34 8 6 11 16 7 27 -5 15 -2
14 14 -4 11 -13 23 -21 27 -19z m-1022 -47 c41 -18 125 -93 125 -113 0 -10 -5
-13 -17 -8 -53 21 -97 28 -183 28 -89 -1 -135 -10 -224 -48 -17 -8 -18 -5 -12
30 9 45 31 82 60 97 18 10 87 19 194 26 12 1 38 -4 57 -12z m-1137 -26 c4 0
15 -7 24 -14 17 -12 16 -17 -12 -77 -17 -35 -35 -72 -41 -83 -6 -10 -13 -30
-15 -44 -3 -15 -9 -31 -13 -37 -5 -5 -12 -28 -16 -50 -4 -22 -10 -44 -13 -50
-9 -14 -11 -33 -20 -210 -5 -88 -5 -173 -1 -188 8 -28 7 -28 -29 -25 -34 3
-37 6 -40 37 -2 18 2 46 9 63 13 31 6 49 -13 30 -7 -7 -16 -12 -20 -12 -12 0
-10 78 3 85 18 12 31 57 19 69 -13 13 -13 56 0 56 6 0 10 -7 10 -16 0 -8 5
-12 10 -9 14 9 12 21 -6 39 -15 16 -11 61 6 51 4 -3 10 2 14 10 3 8 1 15 -4
15 -12 0 -13 37 -1 44 5 3 12 -9 16 -27 l7 -32 9 45 c5 25 7 50 5 55 -3 6 -5
2 -5 -7 -1 -10 -4 -18 -9 -18 -4 0 -5 21 -3 48 3 26 6 38 9 27 8 -40 25 -41
19 -1 -6 39 11 126 25 126 4 0 4 -8 1 -17 -5 -12 0 -10 16 6 13 13 25 21 27
18 8 -7 -7 -57 -16 -54 -11 3 -13 -17 -2 -21 12 -4 55 86 48 101 -2 7 -5 4 -5
-5 -1 -10 -6 -18 -12 -18 -6 0 -9 9 -6 20 3 13 0 20 -9 20 -8 0 -11 -6 -8 -15
4 -8 1 -15 -5 -15 -7 0 -10 13 -7 35 6 44 14 58 33 51 8 -3 18 -6 21 -6z
m2222 -15 c-7 -9 -15 -13 -19 -10 -3 3 1 10 9 15 21 14 24 12 10 -5z m21 -28
c-10 -9 -11 -8 -5 6 3 10 9 15 12 12 3 -3 0 -11 -7 -18z m29 -33 c0 -2 -9 -4
-20 -4 -11 0 -20 4 -20 9 0 5 9 7 20 4 11 -3 20 -7 20 -9z m-1111 -15 c73 -11
121 -33 121 -54 0 -13 -7 -12 -42 6 -79 41 -263 40 -354 -1 -53 -24 -72 -26
-54 -6 11 15 110 51 160 59 48 8 105 7 169 -4z m1171 -74 c0 -5 -5 -3 -10 5
-5 8 -10 20 -10 25 0 6 5 3 10 -5 5 -8 10 -19 10 -25z m-35 -35 c3 -5 1 -10
-4 -10 -6 0 -11 5 -11 10 0 6 2 10 4 10 3 0 8 -4 11 -10z m-1250 -50 c-10 -11
-22 -17 -28 -13 -5 3 1 12 14 19 33 18 35 17 14 -6z m-2648 -7 c-4 -3 -2 -12
4 -20 9 -10 8 -13 -3 -13 -8 0 -17 3 -21 6 -8 9 3 34 16 34 6 0 7 -3 4 -7z
m2673 -13 c0 -5 -5 -10 -11 -10 -5 0 -7 5 -4 10 3 6 8 10 11 10 2 0 4 -4 4
-10z m27 -72 c-3 -7 -5 -2 -5 12 0 14 2 19 5 13 2 -7 2 -19 0 -25z m1340 -105
c-3 -10 -5 -2 -5 17 0 19 2 27 5 18 2 -10 2 -26 0 -35z m8 -63 c-4 -12 -9 -19
-12 -17 -3 3 -2 15 2 27 4 12 9 19 12 17 3 -3 2 -15 -2 -27z m45 -54 c0 -35
-9 -30 -12 7 -1 15 -6 27 -10 27 -4 0 -8 8 -8 18 1 32 30 -18 30 -52z m20 -93
c0 -25 -1 -26 -16 -11 -9 9 -13 21 -10 27 13 20 26 11 26 -16z m-2733 -35 c-3
-7 -5 -2 -5 12 0 14 2 19 5 13 2 -7 2 -19 0 -25z m2762 -13 c0 -5 -4 -3 -9 5
-5 8 -9 22 -9 30 0 16 17 -16 18 -35z m-519 5 c0 -19 -18 -19 -23 -1 -3 14 -1
18 9 14 8 -3 14 -9 14 -13z m353 -27 c5 -26 4 -26 -9 -8 -16 22 -18 35 -5 35
5 0 11 -12 14 -27z m-346 -45 c-3 -8 -6 -5 -6 6 -1 11 2 17 5 13 3 -3 4 -12 1
-19z m519 -20 c-6 -4 -14 0 -18 10 -6 16 -7 16 -7 0 -1 -17 -15 -18 -168 -16
l-168 2 165 6 c91 3 156 8 145 11 -19 6 -18 7 3 8 12 0 22 6 22 11 0 6 8 2 18
-7 12 -12 14 -20 8 -25z m-2673 -5 c-18 -2 -48 -2 -65 0 -18 2 -4 4 32 4 36 0
50 -2 33 -4z m2095 0 c-38 -2 -98 -2 -135 0 -38 2 -7 3 67 3 74 0 105 -1 68
-3z"/>
<path d="M2951 4281 c-9 -6 -10 -11 -2 -15 6 -4 11 -3 11 3 0 5 19 12 43 14
l42 4 -40 1 c-22 1 -46 -2 -54 -7z"/>
<path d="M2293 4273 c-7 -2 -13 -20 -13 -39 0 -27 4 -34 20 -34 17 0 20 7 20
40 0 40 -3 43 -27 33z"/>
<path d="M2248 4235 c-3 -24 0 -35 9 -35 8 0 13 13 13 35 0 19 -4 35 -9 35 -5
0 -11 -16 -13 -35z"/>
<path d="M1911 4244 c0 -11 3 -14 6 -6 3 7 2 16 -1 19 -3 4 -6 -2 -5 -13z"/>
<path d="M2503 4253 c-38 -7 -27 -31 17 -35 36 -3 40 -1 40 19 0 23 -8 26 -57
16z"/>
<path d="M3360 4249 c0 -5 5 -7 10 -4 6 3 10 8 10 11 0 2 -4 4 -10 4 -5 0 -10
-5 -10 -11z"/>
<path d="M2855 4210 c-4 -6 7 -10 25 -10 18 0 29 4 25 10 -3 6 -15 10 -25 10
-10 0 -22 -4 -25 -10z"/>
<path d="M3400 4210 l-45 -7 58 -1 c37 -1 56 2 52 8 -3 6 -9 9 -13 8 -4 0 -27
-4 -52 -8z"/>
<path d="M2020 4196 c0 -2 6 -9 14 -15 10 -9 16 -8 26 4 11 13 8 15 -14 15
-14 0 -26 -2 -26 -4z"/>
<path d="M2561 4195 c3 -2 22 -11 42 -20 36 -15 37 -14 37 5 0 17 -7 20 -42
20 -23 0 -39 -2 -37 -5z"/>
<path d="M2024 4135 c-17 -13 -6 -14 99 -15 97 0 117 2 117 15 0 12 -16 15
-80 15 -48 0 -80 -4 -80 -10 0 -7 -6 -7 -19 -1 -13 7 -24 6 -37 -4z"/>
<path d="M1935 4130 c-15 -7 -10 -9 23 -9 23 -1 42 4 42 9 0 12 -37 12 -65 0z"/>
<path d="M2480 4066 c0 -52 1 -54 31 -60 31 -6 32 -26 1 -26 -15 0 -15 -2 -2
-10 8 -5 23 -10 33 -10 14 0 17 5 12 22 -6 16 -1 26 16 39 20 15 21 19 7 19
-14 0 -18 9 -18 40 l0 40 -40 0 -40 0 0 -54z"/>
<path d="M1720 4060 c-9 -16 -8 -20 5 -20 8 0 15 2 15 4 0 2 3 11 6 20 9 23
-13 20 -26 -4z"/>
<path d="M3760 4059 c0 -5 5 -7 10 -4 6 3 10 8 10 11 0 2 -4 4 -10 4 -5 0 -10
-5 -10 -11z"/>
<path d="M2178 4033 c12 -2 32 -2 45 0 12 2 2 4 -23 4 -25 0 -35 -2 -22 -4z"/>
<path d="M2280 4033 c0 -3 7 -15 16 -25 14 -14 14 -20 4 -33 -10 -12 -10 -15
4 -15 9 0 16 -4 16 -8 0 -5 16 -9 35 -10 19 -1 35 3 35 8 0 6 -16 10 -35 10
-34 0 -35 1 -35 40 0 33 -3 40 -20 40 -11 0 -20 -3 -20 -7z"/>
<path d="M1840 3880 l0 -80 40 0 40 0 0 80 0 80 -40 0 -40 0 0 -80z"/>
<path d="M2408 3953 c7 -3 16 -2 19 1 4 3 -2 6 -13 5 -11 0 -14 -3 -6 -6z"/>
<path d="M2720 3945 c0 -8 6 -15 14 -15 8 0 16 7 20 15 4 10 -1 15 -14 15 -11
0 -20 -7 -20 -15z"/>
<path d="M2488 3943 c7 -3 16 -2 19 1 4 3 -2 6 -13 5 -11 0 -14 -3 -6 -6z"/>
<path d="M2160 3870 c0 -5 7 -10 15 -10 8 0 15 5 15 10 0 6 -7 10 -15 10 -8 0
-15 -4 -15 -10z"/>
<path d="M3595 3870 c3 -5 10 -10 16 -10 5 0 9 5 9 10 0 6 -7 10 -16 10 -8 0
-12 -4 -9 -10z"/>
<path d="M3642 3828 c4 -28 42 -37 52 -13 3 9 2 14 -3 11 -5 -3 -11 1 -15 9
-9 25 -38 18 -34 -7z"/>
<path d="M3749 3838 c-10 -34 -6 -38 42 -38 42 0 49 3 49 20 0 17 -7 20 -45
20 -25 0 -45 -1 -46 -2z"/>
<path d="M3872 3819 c-11 -17 -9 -19 20 -18 18 1 25 3 15 6 -9 2 -15 8 -12 13
3 5 2 11 -3 14 -4 2 -13 -4 -20 -15z"/>
<path d="M2000 3760 c0 -22 4 -40 9 -40 5 0 11 18 13 40 2 28 0 40 -9 40 -8 0
-13 -14 -13 -40z"/>
<path d="M1487 3753 c-14 -13 -6 -33 13 -33 13 0 20 7 20 20 0 19 -20 27 -33
13z"/>
<path d="M4080 3660 c0 -13 7 -20 20 -20 23 0 26 10 8 28 -18 18 -28 15 -28
-8z"/>
<path d="M4008 3643 c6 -2 18 -2 25 0 6 3 1 5 -13 5 -14 0 -19 -2 -12 -5z"/>
<path d="M2001 3614 c0 -11 3 -14 6 -6 3 7 2 16 -1 19 -3 4 -6 -2 -5 -13z"/>
<path d="M2037 3594 c-4 -4 -7 -14 -7 -23 0 -11 3 -12 11 -4 6 6 10 16 7 23
-2 6 -7 8 -11 4z"/>
<path d="M4160 3580 c0 -11 7 -20 15 -20 13 0 14 4 5 20 -6 11 -13 20 -15 20
-3 0 -5 -9 -5 -20z"/>
<path d="M1380 3520 c0 -33 3 -40 20 -40 17 0 20 7 20 40 0 33 -3 40 -20 40
-17 0 -20 -7 -20 -40z"/>
<path d="M2001 3514 c0 -11 3 -14 6 -6 3 7 2 16 -1 19 -3 4 -6 -2 -5 -13z"/>
<path d="M2021 3514 c0 -11 3 -14 6 -6 3 7 2 16 -1 19 -3 4 -6 -2 -5 -13z"/>
<path d="M4351 3504 c0 -11 3 -14 6 -6 3 7 2 16 -1 19 -3 4 -6 -2 -5 -13z"/>
<path d="M1840 3470 c0 -5 4 -10 9 -10 6 0 13 5 16 10 3 6 -1 10 -9 10 -9 0
-16 -4 -16 -10z"/>
<path d="M3825 3470 c-3 -5 -1 -10 4 -10 6 0 11 5 11 10 0 6 -2 10 -4 10 -3 0
-8 -4 -11 -10z"/>
<path d="M4333 3449 c14 -8 22 -8 30 0 8 8 3 11 -18 11 -26 -1 -28 -2 -12 -11z"/>
<path d="M3997 3394 c3 -7 9 -14 14 -14 14 0 10 17 -5 23 -10 4 -13 1 -9 -9z"/>
<path d="M4353 3403 c9 -2 25 -2 35 0 9 3 1 5 -18 5 -19 0 -27 -2 -17 -5z"/>
<path d="M1921 3384 c0 -11 3 -14 6 -6 3 7 2 16 -1 19 -3 4 -6 -2 -5 -13z"/>
<path d="M4427 3393 c-4 -3 -7 -13 -7 -22 1 -13 3 -13 11 2 11 19 8 33 -4 20z"/>
<path d="M1360 3280 c0 -38 2 -40 30 -40 28 0 30 2 30 40 0 38 -2 40 -30 40
-28 0 -30 -2 -30 -40z"/>
<path d="M1680 3280 c0 -22 5 -40 10 -40 6 0 10 6 10 13 0 8 9 24 20 37 26 30
26 30 -10 30 -28 0 -30 -2 -30 -40z"/>
<path d="M4470 3198 c0 -30 3 -39 9 -29 7 11 12 7 20 -20 l11 -34 -5 33 c-10
65 -17 92 -26 92 -5 0 -9 -19 -9 -42z"/>
<path d="M4300 3142 c0 -5 7 -9 15 -9 8 0 12 4 9 9 -3 4 -9 8 -15 8 -5 0 -9
-4 -9 -8z"/>
<path d="M4360 3110 c0 -5 5 -10 11 -10 5 0 7 5 4 10 -3 6 -8 10 -11 10 -2 0
-4 -4 -4 -10z"/>
<path d="M4512 3090 c0 -14 2 -19 5 -12 2 6 2 18 0 25 -3 6 -5 1 -5 -13z"/>
<path d="M1368 3083 c7 -3 16 -2 19 1 4 3 -2 6 -13 5 -11 0 -14 -3 -6 -6z"/>
<path d="M4395 3050 c3 -5 10 -10 16 -10 5 0 9 5 9 10 0 6 -7 10 -16 10 -8 0
-12 -4 -9 -10z"/>
<path d="M4490 3045 c0 -8 5 -15 10 -15 6 0 10 7 10 15 0 8 -4 15 -10 15 -5 0
-10 -7 -10 -15z"/>
<path d="M4535 3040 c-3 -5 -1 -10 4 -10 6 0 11 5 11 10 0 6 -2 10 -4 10 -3 0
-8 -4 -11 -10z"/>
<path d="M1380 3030 c0 -5 5 -10 10 -10 6 0 10 5 10 10 0 6 -4 10 -10 10 -5 0
-10 -4 -10 -10z"/>
<path d="M3090 3215 c-16 -20 -10 -26 66 -71 37 -21 97 -69 134 -106 68 -68
104 -84 116 -53 18 46 -91 163 -200 215 -71 33 -98 37 -116 15z"/>
<path d="M4268 2863 c7 -3 16 -2 19 1 4 3 -2 6 -13 5 -11 0 -14 -3 -6 -6z"/>
<path d="M3730 2850 c-12 -8 -11 -10 8 -10 12 0 22 5 22 10 0 13 -11 13 -30 0z"/>
<path d="M4186 2849 c3 -5 24 -9 46 -9 51 0 47 5 -10 13 -24 3 -40 1 -36 -4z"/>
<path d="M3923 2773 c9 -2 25 -2 35 0 9 3 1 5 -18 5 -19 0 -27 -2 -17 -5z"/>
<path d="M3840 2630 c0 -40 -3 -50 -17 -50 -14 0 -14 -3 -5 -12 10 -10 15 -10
22 1 5 9 35 17 82 21 l73 7 -67 2 c-38 0 -68 5 -68 11 0 6 5 10 10 10 6 0 10
5 10 11 0 5 -5 7 -12 3 -7 -5 -8 -3 -2 7 15 25 13 39 -7 39 -16 0 -19 -7 -19
-50z"/>
<path d="M3768 2593 c7 -3 16 -2 19 1 4 3 -2 6 -13 5 -11 0 -14 -3 -6 -6z"/>
<path d="M4155 2300 c-16 -7 -12 -9 18 -9 44 -1 84 -20 112 -53 26 -30 47 -78
35 -78 -6 0 -1 -9 10 -20 38 -38 22 -184 -31 -295 -34 -72 -118 -166 -174
-195 -22 -11 -33 -20 -26 -20 40 0 125 69 167 136 10 16 22 31 26 34 4 3 19
33 34 65 22 48 28 80 32 163 4 85 7 102 21 103 11 0 9 3 -6 9 -12 5 -33 31
-47 57 -30 59 -50 78 -105 98 -24 8 -44 15 -45 14 0 0 -10 -4 -21 -9z"/>
<path d="M4084 2274 c-19 -15 -19 -15 1 -6 11 5 27 12 35 15 13 5 13 6 -1 6
-8 1 -24 -6 -35 -15z"/>
<path d="M3880 2268 c14 -5 45 -15 70 -22 34 -9 45 -16 43 -30 -1 -13 2 -15
10 -7 6 6 21 11 34 11 14 0 23 6 23 16 0 12 -6 15 -25 10 -15 -4 -53 2 -91 14
-69 21 -107 26 -64 8z"/>
<path d="M4105 2210 c11 -5 27 -9 35 -9 9 0 8 4 -5 9 -11 5 -27 9 -35 9 -9 0
-8 -4 5 -9z"/>
<path d="M4160 2200 c0 -9 39 -25 46 -18 2 3 -7 10 -21 16 -14 6 -25 7 -25 2z"/>
<path d="M4268 2163 c6 -2 18 -2 25 0 6 3 1 5 -13 5 -14 0 -19 -2 -12 -5z"/>
<path d="M4045 1614 l-30 -13 30 6 c32 6 41 11 34 17 -2 2 -17 -2 -34 -10z"/>
<path d="M2721 3189 c-79 -48 -202 -189 -231 -263 -7 -19 -5 -29 7 -41 27 -28
55 -13 97 50 22 33 57 78 77 100 113 121 129 140 129 147 0 6 -32 28 -42 28
-2 0 -18 -10 -37 -21z"/>
<path d="M2640 2810 c0 -13 11 -13 30 0 12 8 11 10 -7 10 -13 0 -23 -4 -23
-10z"/>
<path d="M1650 2774 c-22 -8 -28 -13 -15 -13 11 0 31 6 45 14 31 17 17 17 -30
-1z"/>
<path d="M1735 2770 c-7 -11 9 -11 45 0 24 8 24 8 -7 9 -17 1 -35 -3 -38 -9z"/>
<path d="M2160 2770 c0 -5 5 -10 11 -10 5 0 7 5 4 10 -3 6 -8 10 -11 10 -2 0
-4 -4 -4 -10z"/>
<path d="M1847 2763 c18 -2 50 -2 70 0 21 2 7 4 -32 4 -38 0 -55 -2 -38 -4z"/>
<path d="M1921 2724 c0 -11 3 -14 6 -6 3 7 2 16 -1 19 -3 4 -6 -2 -5 -13z"/>
<path d="M2080 2720 c0 -15 26 -23 46 -16 20 8 17 11 -18 20 -17 4 -28 2 -28
-4z"/>
<path d="M2040 2699 c0 -7 -11 -9 -30 -5 -17 3 -30 1 -30 -4 0 -11 24 -13 69
-4 34 7 42 24 11 24 -11 0 -20 -5 -20 -11z"/>
<path d="M2240 2696 c0 -9 5 -16 10 -16 6 0 10 4 10 9 0 6 -4 13 -10 16 -5 3
-10 -1 -10 -9z"/>
<path d="M1502 2691 c-11 -7 -11 -9 2 -14 10 -4 16 -1 16 8 0 17 -1 17 -18 6z"/>
<path d="M2321 2584 c0 -11 3 -14 6 -6 3 7 2 16 -1 19 -3 4 -6 -2 -5 -13z"/>
<path d="M1760 2509 c0 -5 47 -9 104 -9 57 0 125 -3 152 -6 41 -6 47 -4 36 7
-15 16 -292 24 -292 8z"/>
<path d="M1642 2353 c-17 -7 -5 -23 19 -23 10 0 19 7 19 15 0 15 -14 18 -38 8z"/>
<path d="M1760 2350 c0 -5 18 -10 40 -10 22 0 40 5 40 10 0 6 -18 10 -40 10
-22 0 -40 -4 -40 -10z"/>
<path d="M3840 1020 c0 -5 5 -10 10 -10 6 0 10 5 10 10 0 6 -4 10 -10 10 -5 0
-10 -4 -10 -10z"/>
<path d="M3925 980 c3 -5 13 -10 21 -10 8 0 12 5 9 10 -3 6 -13 10 -21 10 -8
0 -12 -4 -9 -10z"/>
<path d="M3740 941 c0 -6 5 -13 10 -16 6 -3 10 1 10 9 0 9 -4 16 -10 16 -5 0
-10 -4 -10 -9z"/>
<path d="M3708 773 c6 -2 18 -2 25 0 6 3 1 5 -13 5 -14 0 -19 -2 -12 -5z"/>
<path d="M3838 753 c7 -3 16 -2 19 1 4 3 -2 6 -13 5 -11 0 -14 -3 -6 -6z"/>
<path d="M3880 720 c0 -5 7 -10 16 -10 8 0 12 5 9 10 -3 6 -10 10 -16 10 -5 0
-9 -4 -9 -10z"/>
<path d="M4000 690 c0 -5 5 -10 10 -10 6 0 10 5 10 10 0 6 -4 10 -10 10 -5 0
-10 -4 -10 -10z"/>
<path d="M3740 656 c0 -24 12 -41 22 -30 8 7 -3 54 -13 54 -5 0 -9 -11 -9 -24z"/>
<path d="M3775 653 c4 -16 9 -38 10 -50 2 -12 8 -30 14 -40 9 -15 10 -13 5 12
-13 63 -25 105 -30 105 -4 0 -3 -12 1 -27z"/>
<path d="M3911 664 c0 -11 3 -14 6 -6 3 7 2 16 -1 19 -3 4 -6 -2 -5 -13z"/>
<path d="M3882 625 c0 -16 2 -22 5 -12 2 9 2 23 0 30 -3 6 -5 -1 -5 -18z"/>
<path d="M3902 550 c0 -19 2 -27 5 -17 2 9 2 25 0 35 -3 9 -5 1 -5 -18z"/>
<path d="M3671 504 c0 -11 3 -14 6 -6 3 7 2 16 -1 19 -3 4 -6 -2 -5 -13z"/>
<path d="M4244 480 c0 -27 4 -36 16 -36 11 0 15 6 12 18 -2 10 -8 18 -12 18
-5 0 -10 8 -13 18 -2 9 -4 1 -3 -18z"/>
<path d="M4250 419 c11 -8 12 -12 3 -16 -17 -6 -17 -43 0 -43 8 0 13 13 14 35
1 26 -3 35 -15 35 -15 0 -15 -2 -2 -11z"/>
<path d="M3842 180 c0 -14 2 -19 5 -12 2 6 2 18 0 25 -3 6 -5 1 -5 -13z"/>
<path d="M4010 865 c0 -8 5 -15 10 -15 6 0 10 7 10 15 0 8 -4 15 -10 15 -5 0
-10 -7 -10 -15z"/>
<path d="M1850 800 c0 -5 5 -10 10 -10 6 0 10 5 10 10 0 6 -4 10 -10 10 -5 0
-10 -4 -10 -10z"/>
<path d="M1885 780 c-3 -5 1 -10 10 -10 9 0 13 5 10 10 -3 6 -8 10 -10 10 -2
0 -7 -4 -10 -10z"/>
<path d="M1800 590 c0 -5 5 -10 10 -10 6 0 10 5 10 10 0 6 -4 10 -10 10 -5 0
-10 -4 -10 -10z"/>
<path d="M1761 304 c0 -11 3 -14 6 -6 3 7 2 16 -1 19 -3 4 -6 -2 -5 -13z"/>
<path d="M1761 214 c0 -11 3 -14 6 -6 3 7 2 16 -1 19 -3 4 -6 -2 -5 -13z"/>
<path d="M3520 263 c0 -6 4 -14 8 -17 15 -9 13 -94 -3 -162 -18 -78 -18 -84
-3 -84 6 0 9 3 6 6 -3 3 0 29 8 57 18 70 18 168 -1 193 -8 10 -15 14 -15 7z"/>
<path d="M3303 243 c9 -2 25 -2 35 0 9 3 1 5 -18 5 -19 0 -27 -2 -17 -5z"/>
<path d="M3243 233 c9 -2 23 -2 30 0 6 3 -1 5 -18 5 -16 0 -22 -2 -12 -5z"/>
<path d="M3140 220 c-13 -9 -13 -10 0 -10 8 0 22 5 30 10 13 9 13 10 0 10 -8
0 -22 -5 -30 -10z"/>
<path d="M3098 213 c7 -3 16 -2 19 1 4 3 -2 6 -13 5 -11 0 -14 -3 -6 -6z"/>
<path d="M2066 185 c-11 -17 -16 -48 -16 -105 0 -44 3 -80 8 -80 4 0 7 33 7
73 1 39 4 84 8 99 7 25 11 27 70 31 l62 3 -61 2 c-56 2 -63 0 -78 -23z"/>
<path d="M3028 203 c12 -2 30 -2 40 0 9 3 -1 5 -23 4 -22 0 -30 -2 -17 -4z"/>
<path d="M2218 193 c6 -2 18 -2 25 0 6 3 1 5 -13 5 -14 0 -19 -2 -12 -5z"/>
<path d="M2740 190 l-105 -6 95 -1 c52 0 124 3 160 7 l65 7 -55 0 c-30 -1
-102 -4 -160 -7z"/>
<path d="M2298 183 c7 -3 16 -2 19 1 4 3 -2 6 -13 5 -11 0 -14 -3 -6 -6z"/>
</g>
</svg>
